<?xml version="1.0" encoding="utf-8"?>
<!-- Generator: Adobe Illustrator 25.0.0, SVG Export Plug-In . SVG Version: 6.00 Build 0)  -->
<svg version="1.1" id="Layer_1" xmlns="http://www.w3.org/2000/svg" xmlns:xlink="http://www.w3.org/1999/xlink" x="0px" y="0px"
	 viewBox="0 0 800 800" style="enable-background:new 0 0 800 800;" xml:space="preserve">
<style type="text/css">
	.st0{fill:#395398;}
	.st1{fill:#FFFFFF;}
</style>
<g>
	<path class="st0" d="M600,400c0-110.46-89.55-200-200-200c-110.46,0-200,89.54-200,200c0,110.45,89.54,200,200,200
		c0.57,0,1.14-0.04,1.71-0.04V460.43h-48.15v-55.77h48.15v-41.12c0-47.73,29.15-73.72,71.72-73.72c20.4,0,37.93,1.52,43.03,2.2
		v49.88l-29.53,0.01c-23.15,0-27.63,11-27.63,27.15v35.6h55.22l-7.19,55.77H459.3v130.63C540.8,565.79,600,489.81,600,400z"/>
	<path class="st1" d="M507.33,460.43l7.19-55.77H459.3v-35.6c0-16.15,4.48-27.15,27.63-27.15l29.53-0.01v-49.88
		c-5.11-0.68-22.64-2.2-43.03-2.2c-42.57,0-71.72,25.99-71.72,73.72v41.12h-48.15v55.77h48.15v139.53
		c20.03-0.17,39.37-3.26,57.59-8.9V460.43H507.33z"/>
</g>
</svg>
