<?xml version="1.0" encoding="utf-8"?>
<!-- Generator: Adobe Illustrator 25.0.0, SVG Export Plug-In . SVG Version: 6.00 Build 0)  -->
<svg version="1.1" id="Layer_1" xmlns="http://www.w3.org/2000/svg" xmlns:xlink="http://www.w3.org/1999/xlink" x="0px" y="0px"
	 viewBox="0 0 800 800" style="enable-background:new 0 0 800 800;" xml:space="preserve">
<style type="text/css">
	.st0{fill:#32BA46;}
	.st1{fill:none;}
	.st2{fill:#FFFFFF;}
</style>
<g>
	<g>
		<g>
			<path class="st0" d="M400,599.99c-35.01,0-69.34-9.26-99.75-26.84l-77.92,26.84l16.02-82.51C213.23,483.08,200,442.6,200,400
				c0-110.28,89.72-200,200-200c110.29,0,200,89.72,200,200C600,510.28,510.29,599.99,400,599.99z"/>
		</g>
	</g>
	<g>
		<g>
			<path class="st1" d="M400,279.06c-66.79,0-120.94,54.15-120.94,120.94c0,28.07,9.65,53.83,25.69,74.35l-8.08,41.63l39.28-13.54
				c18.59,11.66,40.5,18.49,64.05,18.49c66.79,0,120.95-54.15,120.95-120.94C520.95,333.21,466.79,279.06,400,279.06z"/>
			<path class="st2" d="M400,530.66c-22.87,0-45.3-6.05-65.16-17.54l-50.91,17.54l10.46-53.91c-16.4-22.48-25.04-48.92-25.04-76.75
				c0-72.04,58.61-130.66,130.66-130.66c72.05,0,130.66,58.61,130.66,130.66C530.66,472.05,472.05,530.66,400,530.66z
				 M337.18,491.75l3.94,2.46c17.74,11.12,38.11,17,58.88,17c61.33,0,111.22-49.89,111.22-111.22
				c0-61.32-49.89-111.22-111.22-111.22c-61.32,0-111.21,49.89-111.21,111.22c0,24.95,8.17,48.59,23.62,68.37l2.73,3.49l-5.72,29.46
				L337.18,491.75z"/>
		</g>
		<path class="st2" d="M334.04,349.8c0,0,7.67-13.4,13.92-14.16c6.25-0.77,14.3-0.77,16.46,3.32c2.17,4.08,11.87,27.83,11.87,27.83
			s1.66,4.08-0.89,8.04c-2.55,3.95-8.3,9.7-8.3,9.7s-3.19,4.08,0,8.43c3.19,4.33,8.14,12.31,18.38,22.54
			c10.22,10.24,29.86,17.53,29.86,17.53s2.81,0.38,4.6-1.4c1.78-1.79,11.49-13.91,11.49-13.91s3.11-4.02,8.29-1.66
			c5.17,2.36,27.57,13.53,27.57,13.53s2.62,0.96,2.62,4.91c0,3.95-1.6,13.64-4.88,16.91c-3.27,3.28-12.84,13.37-27.23,13.37
			c-14.38,0-48.63-11.7-66.88-29.95c-18.25-18.26-34.46-36.76-38.28-53.61C328.81,364.35,329.32,356.74,334.04,349.8z"/>
	</g>
</g>
</svg>
